<svg width="32" height="32" viewBox="0 0 32 32" fill="none" xmlns="http://www.w3.org/2000/svg">
  <g transform="translate(16, 16)">
    <!-- Center circle -->
    <circle cx="0" cy="0" r="1.5" fill="#ffffff"/>
    <!-- Cardinal spokes -->
    <line x1="0" y1="-3" x2="0" y2="-14" stroke="#ffffff" stroke-width="1.4" stroke-linecap="round"/>
    <line x1="0" y1="3" x2="0" y2="14" stroke="#ffffff" stroke-width="1.4" stroke-linecap="round"/>
    <line x1="-3" y1="0" x2="-14" y2="0" stroke="#ffffff" stroke-width="1.4" stroke-linecap="round"/>
    <line x1="3" y1="0" x2="14" y2="0" stroke="#ffffff" stroke-width="1.4" stroke-linecap="round"/>
    <!-- Diagonal spokes -->
    <line x1="-2.1" y1="-2.1" x2="-10" y2="-10" stroke="#ffffff" stroke-width="1.1" stroke-linecap="round"/>
    <line x1="2.1" y1="-2.1" x2="10" y2="-10" stroke="#ffffff" stroke-width="1.1" stroke-linecap="round"/>
    <line x1="-2.1" y1="2.1" x2="-10" y2="10" stroke="#ffffff" stroke-width="1.1" stroke-linecap="round"/>
    <line x1="2.1" y1="2.1" x2="10" y2="10" stroke="#ffffff" stroke-width="1.1" stroke-linecap="round"/>
    <!-- In-between spokes -->
    <line x1="-1.1" y1="-2.7" x2="-5.4" y2="-13" stroke="#ffffff" stroke-width="0.9" stroke-linecap="round"/>
    <line x1="1.1" y1="-2.7" x2="5.4" y2="-13" stroke="#ffffff" stroke-width="0.9" stroke-linecap="round"/>
    <line x1="-2.7" y1="-1.1" x2="-13" y2="-5.4" stroke="#ffffff" stroke-width="0.9" stroke-linecap="round"/>
    <line x1="2.7" y1="-1.1" x2="13" y2="-5.4" stroke="#ffffff" stroke-width="0.9" stroke-linecap="round"/>
    <line x1="-1.1" y1="2.7" x2="-5.4" y2="13" stroke="#ffffff" stroke-width="0.9" stroke-linecap="round"/>
    <line x1="1.1" y1="2.7" x2="5.4" y2="13" stroke="#ffffff" stroke-width="0.9" stroke-linecap="round"/>
    <line x1="-2.7" y1="1.1" x2="-13" y2="5.4" stroke="#ffffff" stroke-width="0.9" stroke-linecap="round"/>
    <line x1="2.7" y1="1.1" x2="13" y2="5.4" stroke="#ffffff" stroke-width="0.9" stroke-linecap="round"/>
  </g>
</svg>
